<mxfile host="app.diagrams.net" modified="2023-05-03T06:13:21.653Z" agent="Mozilla/5.0 (Macintosh; Intel Mac OS X 10_15_7) AppleWebKit/537.36 (KHTML, like Gecko) Chrome/112.0.0.0 Safari/537.36" etag="BwfswCOyJNFThGYgzDsl" version="21.2.6" type="github">
  <diagram name="Page-1" id="c7558073-3199-34d8-9f00-42111426c3f3">
    <mxGraphModel dx="1156" dy="714" grid="1" gridSize="10" guides="1" tooltips="1" connect="1" arrows="1" fold="1" page="1" pageScale="1" pageWidth="826" pageHeight="1169" background="none" math="0" shadow="0">
      <root>
        <mxCell id="0" />
        <mxCell id="1" parent="0" />
        <mxCell id="2" value="&lt;p style=&quot;margin: 0px; margin-top: 4px; text-align: center; text-decoration: underline;&quot;&gt;&lt;strong&gt;Process 1&lt;br&gt;&lt;/strong&gt;&lt;/p&gt;&lt;hr&gt;&lt;p style=&quot;margin: 0px; margin-left: 8px;&quot;&gt;RM Central Service&lt;br&gt;&lt;/p&gt;" style="verticalAlign=middle;align=center;overflow=fill;fontSize=12;fontFamily=Helvetica;html=1;rounded=1;fontStyle=1;strokeWidth=3;fillColor=#E6FFCC" parent="1" vertex="1">
          <mxGeometry x="140" y="115.5" width="183.5" height="81" as="geometry" />
        </mxCell>
        <mxCell id="4" value="c4p-metering-uaa.TechnicalUser" style="whiteSpace=wrap;align=center;verticalAlign=middle;fontStyle=1;strokeWidth=3;fillColor=#FFFFCC" parent="1" vertex="1">
          <mxGeometry x="288" y="310" width="120" height="31" as="geometry" />
        </mxCell>
        <mxCell id="5" value="C4P-Metering Service" style="shape=process;whiteSpace=wrap;align=center;verticalAlign=middle;size=0.0475;fontStyle=1;strokeWidth=3;fillColor=#FFCCCC" parent="1" vertex="1">
          <mxGeometry x="188.5" y="391" width="341.5" height="50" as="geometry" />
        </mxCell>
        <mxCell id="YFlR7COWEsFJepkjWLxV-116" style="edgeStyle=orthogonalEdgeStyle;rounded=1;orthogonalLoop=1;jettySize=auto;html=1;entryX=0;entryY=0.5;entryDx=0;entryDy=0;strokeColor=#990000;strokeWidth=2;" edge="1" parent="1" source="6" target="YFlR7COWEsFJepkjWLxV-112">
          <mxGeometry relative="1" as="geometry" />
        </mxCell>
        <mxCell id="6" value="&lt;p style=&quot;margin: 0px; margin-top: 4px; text-align: center; text-decoration: underline;&quot;&gt;&lt;strong&gt;Process 2&lt;br&gt;&lt;/strong&gt;&lt;/p&gt;&lt;hr&gt;&lt;p style=&quot;margin: 0px; margin-left: 8px;&quot;&gt;CoPM Admin Service&lt;br&gt;&lt;/p&gt;" style="verticalAlign=middle;align=center;overflow=fill;fontSize=12;fontFamily=Helvetica;html=1;rounded=1;fontStyle=1;strokeWidth=3;fillColor=#E6FFCC" parent="1" vertex="1">
          <mxGeometry x="360" y="115.5" width="180" height="74.5" as="geometry" />
        </mxCell>
        <mxCell id="YFlR7COWEsFJepkjWLxV-110" style="edgeStyle=orthogonalEdgeStyle;rounded=1;orthogonalLoop=1;jettySize=auto;html=1;exitX=0.5;exitY=0;exitDx=0;exitDy=0;strokeWidth=2;strokeColor=#990000;" edge="1" parent="1" source="7" target="6">
          <mxGeometry relative="1" as="geometry">
            <Array as="points">
              <mxPoint x="746" y="220" />
              <mxPoint x="478" y="220" />
            </Array>
          </mxGeometry>
        </mxCell>
        <mxCell id="7" value="&lt;p style=&quot;margin: 0px; margin-top: 4px; text-align: center; text-decoration: underline;&quot;&gt;&lt;strong&gt;&lt;strong&gt;Process&lt;/strong&gt; 3&lt;br&gt;&lt;/strong&gt;&lt;/p&gt;&lt;hr&gt;copin-scheduler" style="verticalAlign=middle;align=center;overflow=fill;fontSize=12;fontFamily=Helvetica;html=1;rounded=1;fontStyle=1;strokeWidth=3;fillColor=#E6FFCC" parent="1" vertex="1">
          <mxGeometry x="681" y="380.5" width="129" height="71" as="geometry" />
        </mxCell>
        <mxCell id="14" value="c4p-metering-broker" style="whiteSpace=wrap;align=center;verticalAlign=middle;fontStyle=1;strokeWidth=3;fillColor=#d5e8d4;strokeColor=#82b366;" parent="1" vertex="1">
          <mxGeometry x="238.5" y="200" width="65" height="45" as="geometry" />
        </mxCell>
        <mxCell id="11" value="&lt;p style=&quot;margin: 0px; margin-top: 4px; text-align: center; text-decoration: underline;&quot;&gt;&lt;strong&gt;&lt;strong&gt;Process&lt;/strong&gt;&amp;nbsp;4&lt;br&gt;&lt;/strong&gt;&lt;/p&gt;&lt;hr&gt;&lt;p style=&quot;margin: 0px; margin-left: 8px;&quot;&gt;Unified Metering Service&lt;/p&gt;" style="verticalAlign=middle;align=center;overflow=fill;fontSize=12;fontFamily=Helvetica;html=1;rounded=1;fontStyle=1;strokeWidth=3;fillColor=#E6FFCC" parent="1" vertex="1">
          <mxGeometry x="319.5" y="570" width="156.5" height="60" as="geometry" />
        </mxCell>
        <mxCell id="59" value="" style="edgeStyle=elbowEdgeStyle;elbow=horizontal;strokeColor=#990000;strokeWidth=2" parent="1" source="6" target="5" edge="1">
          <mxGeometry width="100" height="100" relative="1" as="geometry">
            <mxPoint x="350" y="370" as="sourcePoint" />
            <mxPoint x="450" y="270" as="targetPoint" />
            <Array as="points">
              <mxPoint x="460" y="320" />
            </Array>
          </mxGeometry>
        </mxCell>
        <mxCell id="61" value="Sync user access log&#xa;[New SKU]" style="text;spacingTop=-5;align=center" parent="1" vertex="1">
          <mxGeometry x="476" y="230" width="99" height="40" as="geometry" />
        </mxCell>
        <mxCell id="63" value="Trigger sending usage&#xa;[Old SKU]" style="text;spacingTop=-5;align=center" parent="1" vertex="1">
          <mxGeometry x="669.5" y="230.0000000000001" width="30" height="20" as="geometry" />
        </mxCell>
        <mxCell id="73" value="" style="edgeStyle=elbowEdgeStyle;elbow=vertical;strokeColor=#990000;strokeWidth=2" parent="1" source="7" target="5" edge="1">
          <mxGeometry width="100" height="100" relative="1" as="geometry">
            <mxPoint x="460" y="500" as="sourcePoint" />
            <mxPoint x="560" y="400" as="targetPoint" />
            <Array as="points">
              <mxPoint x="610" y="420" />
              <mxPoint x="650" y="430" />
            </Array>
          </mxGeometry>
        </mxCell>
        <mxCell id="88" value="" style="edgeStyle=elbowEdgeStyle;elbow=horizontal;strokeColor=#990000;strokeWidth=2" parent="1" source="5" target="11" edge="1">
          <mxGeometry width="100" height="100" relative="1" as="geometry">
            <mxPoint x="50" y="500" as="sourcePoint" />
            <mxPoint x="150" y="400" as="targetPoint" />
            <Array as="points">
              <mxPoint x="390" y="470" />
            </Array>
          </mxGeometry>
        </mxCell>
        <mxCell id="96" value="Send Usage Document&#xa;[New SKU]" style="text;spacingTop=-5;align=center" parent="1" vertex="1">
          <mxGeometry x="303.4999999999998" y="480" width="30" height="20" as="geometry" />
        </mxCell>
        <mxCell id="YFlR7COWEsFJepkjWLxV-97" value="copin-uaa.internal" style="whiteSpace=wrap;align=center;verticalAlign=middle;fontStyle=1;strokeWidth=3;fillColor=#FFFFCC" vertex="1" parent="1">
          <mxGeometry x="471" y="280" width="109" height="30" as="geometry" />
        </mxCell>
        <mxCell id="YFlR7COWEsFJepkjWLxV-98" value="Sync user access log&#xa;[New SKU]" style="text;spacingTop=-5;align=center" vertex="1" parent="1">
          <mxGeometry x="298.5" y="271" width="99" height="20" as="geometry" />
        </mxCell>
        <mxCell id="YFlR7COWEsFJepkjWLxV-100" value="" style="edgeStyle=elbowEdgeStyle;elbow=horizontal;strokeColor=#990000;strokeWidth=2" edge="1" parent="1">
          <mxGeometry width="100" height="100" relative="1" as="geometry">
            <mxPoint x="275.5" y="245" as="sourcePoint" />
            <mxPoint x="276" y="390" as="targetPoint" />
            <Array as="points">
              <mxPoint x="275.5" y="355" />
            </Array>
          </mxGeometry>
        </mxCell>
        <mxCell id="YFlR7COWEsFJepkjWLxV-104" value="copin-uaa.internal" style="whiteSpace=wrap;align=center;verticalAlign=middle;fontStyle=1;strokeWidth=3;fillColor=#FFFFCC" vertex="1" parent="1">
          <mxGeometry x="630" y="271" width="109" height="30" as="geometry" />
        </mxCell>
        <mxCell id="YFlR7COWEsFJepkjWLxV-105" value="Trigger sending usage&#xa;[New SKU]" style="text;spacingTop=-5;align=center" vertex="1" parent="1">
          <mxGeometry x="595" y="430.0000000000001" width="30" height="20" as="geometry" />
        </mxCell>
        <mxCell id="YFlR7COWEsFJepkjWLxV-107" value="copin-uaa.internal" style="whiteSpace=wrap;align=center;verticalAlign=middle;fontStyle=1;strokeWidth=3;fillColor=#FFFFCC" vertex="1" parent="1">
          <mxGeometry x="550" y="380" width="109" height="30" as="geometry" />
        </mxCell>
        <mxCell id="YFlR7COWEsFJepkjWLxV-112" value="&lt;p style=&quot;margin: 0px; margin-top: 4px; text-align: center; text-decoration: underline;&quot;&gt;&lt;strong&gt;&lt;strong&gt;Process&lt;/strong&gt; 5&lt;br&gt;&lt;/strong&gt;&lt;/p&gt;&lt;hr&gt;&lt;p style=&quot;margin: 0px; margin-left: 8px;&quot;&gt;BTP Metering Service&lt;/p&gt;" style="verticalAlign=middle;align=center;overflow=fill;fontSize=12;fontFamily=Helvetica;html=1;rounded=1;fontStyle=1;strokeWidth=3;fillColor=#E6FFCC" vertex="1" parent="1">
          <mxGeometry x="650" y="50" width="140" height="60" as="geometry" />
        </mxCell>
        <mxCell id="YFlR7COWEsFJepkjWLxV-117" value="Send Usage Document&lt;br style=&quot;border-color: var(--border-color); padding: 0px; margin: 0px; text-align: center;&quot;&gt;&lt;span style=&quot;text-align: center;&quot;&gt;[Old SKU]&lt;/span&gt;" style="text;whiteSpace=wrap;html=1;" vertex="1" parent="1">
          <mxGeometry x="609" y="115.5" width="130" height="40" as="geometry" />
        </mxCell>
      </root>
    </mxGraphModel>
  </diagram>
</mxfile>
